# xmcd
# 
# Track frame offsets:
#     150
#     23205
#     46305
#     69372
#     103675
# 
# Disc length: 2076
# 
# Revision: 1
# Processed by: cddbd v1.5.2PL0 Copyright (c) Steve Scherf et al.
# Submitted via: fre:ac v1.0.17
# 
DISCID=39081a05
DTITLE=今井美樹 - 氷のように微笑んで
DYEAR=1999
DGENRE=J-Pop
TTITLE0=氷のように微笑んで
TTITLE1=SMILING GIRLS
TTITLE2=氷のように微笑んで(インストゥルメンタル)
TTITLE3=SMILING GIRLS(インストゥルメンタル)
TTITLE4=deta
EXTD=YEAR: 1999
EXTT0=
EXTT1=
EXTT2=
EXTT3=
EXTT4=
PLAYORDER=
